<?xml version="1.0" encoding="UTF-8"?>
<svg xmlns="http://www.w3.org/2000/svg" viewBox="0 0 662.24 112.41">
  <defs>
    <style>
      .cls-1 {
        fill: #f7f9f0;
      }

      .cls-1, .cls-2, .cls-3, .cls-4, .cls-5, .cls-6, .cls-7, .cls-8, .cls-9, .cls-10, .cls-11, .cls-12, .cls-13, .cls-14, .cls-15, .cls-16, .cls-17, .cls-18, .cls-19 {
        stroke-width: 0px;
      }

      .cls-2 {
        fill: #96bd3c;
      }

      .cls-3 {
        fill: #517838;
      }

      .cls-4 {
        fill: #95bd3c;
      }

      .cls-6 {
        fill: #f8f9f1;
      }

      .cls-7 {
        fill: #f7f9ef;
      }

      .cls-8 {
        fill: #517738;
      }

      .cls-9 {
        fill: #bebebe;
      }

      .cls-10 {
        fill: #517839;
      }

      .cls-11 {
        fill: #a5c73c;
      }

      .cls-12 {
        fill: #507737;
      }

      .cls-13 {
        fill: #f8faf0;
      }

      .cls-14 {
        fill: #f9faf4;
      }

      .cls-15 {
        fill: #96be3c;
      }

      .cls-16 {
        fill: #6d943d;
      }

      .cls-17 {
        fill: #fafbf7;
      }

      .cls-18 {
        fill: #527839;
      }

      .cls-19 {
        fill: #6d953d;
      }
    </style>
  </defs>
  <g id="Layer_1" data-name="Layer 1">
    <path class="cls-9" d="m349.89,0c.02.06.03.12.02.19-.42.5-1,.43-1.55.43-5.85.02-11.71.01-17.56,0-.55,0-1.13.06-1.55-.43,0-.07,0-.13.01-.2h20.63Z"/>
    <path class="cls-5" d="m329.25.2c6.89,0,13.77,0,20.66,0,1.2.29,1.67,1.11,1.67,2.28,0,1.08,0,2.15,0,3.23,0,2.18.54,2.74,2.78,2.71,4.99-.08,9.98-.24,14.97-.3,2.92-.04,5.82.19,8.66.96,5.88,1.59,8.71,5.14,8.72,11.23.03,21.46.05,42.92-.01,64.39-.02,5.11-2.11,9.65-4.54,14.05-4.41,8-11.45,11.52-20.32,11.96-1.46.07-2.24-.71-2.35-2.23-.55-8.06.27-15.98,2.44-23.77,2.05-7.37,2.76-14.94,3.12-22.56.47-9.77.12-19.54.15-29.3,0-1.74-.73-2.44-2.49-2.44-2.88,0-5.76,0-8.64,0-1.89,0-2.5.61-2.5,2.5,0,23.5,0,46.99,0,70.49,0,2.29-.43,2.77-2.67,3.11-6.07.93-12.15,1.87-18.22,2.82-2.08.33-2.98-.42-2.98-2.57,0-24.45,0-48.91,0-73.36,0-2.43-.46-2.89-2.93-2.99-1.6-.07-3.19-.19-4.78-.22-1.34-.02-2.05.7-2.12,2.05-.02.32,0,.64,0,.96,0,23.74,0,47.47,0,71.21,0,2.34-.49,2.83-2.8,3.09-5.95.67-11.9,1.39-17.84,2.08-.59.07-1.2.12-1.79.11-1.06-.03-1.79-.72-1.9-1.77-.03-.32-.01-.64-.01-.96,0-23.18,0-46.35-.02-69.53,0-1.47.45-2.38,1.82-2.99,1.51-.67,2.81-1.68,3.81-3.01.66-.89.43-1.45-.64-1.72-1.26-.32-2.54-.11-3.82-.12-1.86-.02-2.66-1.1-2.14-2.91,1.54-5.39,3.08-10.78,4.63-16.17.44-1.51.97-1.9,2.58-1.9,8.44,0,16.87,0,25.31,0,2.02,0,2.65-.63,2.66-2.64,0-1.12.02-2.23,0-3.35-.03-1.16.39-2.01,1.55-2.39Z"/>
    <path class="cls-5" d="m214.83,15.52c4.28,0,8.56-.03,12.83.02,1.01.01,1.48-.35,1.84-1.27,1.49-3.81,3.05-7.6,4.59-11.39.59-1.46.65-1.48,2.08-.96,5.27,1.94,10.53,3.88,15.8,5.82,1.3.48,1.37.66.74,1.91-.75,1.49-1.53,2.97-2.28,4.46-.49.99-.31,1.27.81,1.33.2.01.4,0,.6,0,9.03.03,18.07.05,27.1.08,1.6,0,1.65.05,1.42,1.61-.96,6.34-1.95,12.67-2.89,19.01-.11.73-.38,1.01-1.14,1.02-4.43.04-8.87.12-13.3.18-1.44.02-1.55.17-1.03,1.54,8.15,21.9,16.29,43.8,24.44,65.71.55,1.49.54,1.52-.96,2.02-5.6,1.87-11.2,3.7-16.78,5.63-1.2.41-1.6.04-1.99-1.01-8.3-22.18-16.63-44.36-24.96-66.53-.06-.15-.11-.3-.16-.45-.13-.38-.26-.82-.74-.83-.48-.01-.62.43-.77.8-1.14,2.71-2.28,5.42-3.42,8.13-8.25,19.55-16.51,39.1-24.74,58.65-.39.94-.8,1.26-1.87.92-5.61-1.79-11.26-3.49-16.89-5.23-1.57-.48-1.62-.61-1-2.08,9.19-21.87,18.38-43.75,27.57-65.62.64-1.52.57-1.63-1.06-1.65-6.07-.08-12.14-.17-18.21-.22-.9,0-1.21-.34-1.15-1.21.44-6.32.88-12.63,1.26-18.95.07-1.1.42-1.48,1.57-1.46,4.24.07,8.47.03,12.71.03Z"/>
    <path class="cls-11" d="m43.79,38.57c1.24,5.18,2.47,10.37,3.71,15.55.14.58.29,1.15.43,1.73h.38v-16.06c.31-.4.77-.42,1.2-.36,2.15.31,4.31.11,6.46.18,1.42.08,2.84,0,4.26.04.3,0,.59.06.84.24.61,1.08.37,2.27.28,3.39-.27,3.53-.41,7.06-.9,10.57-.55,3.94-1.18,7.88-2.3,11.7-.65,2.21-1.41,4.4-3.03,6.15-1.87.33-3.78.31-5.67.42-.2.01-.43-.02-.57-.15-1.02-.94-2.12-.54-3.24-.27-1.93.45-3.87.89-5.82,1.28-.5.1-1.01.26-1.52.03-1.15-5.07-2.3-10.14-3.46-15.21-1.09-4.76-2.23-9.51-3.28-14.27-.2-.9-.47-1.52-1.48-1.57.1-.19.28-.28.47-.33,4.21-.93,8.31-2.26,12.49-3.28.28-.03.54-.01.73.23Z"/>
    <path class="cls-5" d="m255.17,89.62c.06.5-.25.81-.56,1.13-6.27,6.25-12.54,12.51-18.81,18.76-.89.89-1.58.89-2.47,0-3.12-3.09-6.22-6.19-9.32-9.3-.9-.9-.89-1.66.02-2.57,6.21-6.21,12.42-12.4,18.64-18.6.98-.98,1.65-.97,2.65.01,3.06,3.04,6.1,6.09,9.15,9.13.4.4.79.8.7,1.44Z"/>
    <path class="cls-11" d="m48.07,109.15c-1.58-2.18-1.71-4.84-2.31-7.32-1.92-7.95-3.72-15.94-5.56-23.91-.12-.51-.18-1.02-.71-1.29.37-.44.92-.44,1.41-.58,1.8-.53,3.62-.98,5.47-1.32.76-.14,1.5-.19,2.24.08.61.23,1.25.23,1.89.23,2.95,0,5.91,0,8.86,0,.56,0,1.12-.04,1.65.19.57.33.61.9.63,1.46.2,9.66-.86,19.13-4.37,28.22-.37.95-.6,1.99-1.44,2.71-1.7.47-3.44.51-5.18.45-1.06-.04-1.96.16-2.58,1.09Z"/>
    <path class="cls-11" d="m48.33,36.12c.01-7.93.03-15.86.04-23.79,0-2.75-.02-5.5-.03-8.25.29-.33.7-.37,1.09-.37,3.5-.03,7-.04,10.5,0,.24,0,.47.05.7.15.65.37.64,1.05.78,1.66,1.33,6.14.51,12.19-.74,18.22-.8,3.87-2.04,7.61-3.97,11.09-.27.48-.47,1.02-1.02,1.28-2.45.24-4.89.31-7.34.01Z"/>
    <path class="cls-11" d="m35.3,4.31c.51,2.23,1.03,4.47,1.54,6.7-.29.3-.19.65-.16,1.01.38,3.67.68,7.34.81,11.04.14,3.79-.11,7.53-.68,11.26-.13.86-.26,1.73-.71,2.51-.24.34-.59.51-.97.62-1.44.4-2.9.72-4.34,1.13-.33.09-.69.21-1-.09-2.34-10.09-4.68-20.17-7.03-30.26-.08-.34-.23-.67-.35-1.01.23-.45.67-.55,1.09-.64,3.61-.83,7.18-1.88,10.85-2.47.34-.05.67-.08.94.2Z"/>
    <path class="cls-11" d="m67.29,74.44c0-9.88-.02-19.75-.03-29.63,1.13-.64,2.49-.58,3.42.15.04.28-.13.47-.34.58-1.44.73-1.65,2.06-1.71,3.45-.05,1.23-.02,2.47-.02,3.71,0,5.74,0,11.48,0,17.23,0,.43-.07.88.13,1.42.51-1.08.57-2.13.57-3.19,0-6.58.38-13.15.26-19.73-.04-2.13.58-2.83,2.65-3.3.28-.06.52-.21.77-.32,1.79-.55,3.61-.47,5.44-.31.95.18,1.46.62,1.32,1.72-.74,5.69-1.32,11.4-2.35,17.05-.63,3.49-1.48,6.94-3.11,10.14-.23.46-.41.96-.91,1.23-2.05.2-4.09.52-6.11-.2Z"/>
    <path class="cls-11" d="m67.3,107.71c0-9.8-.01-19.61-.02-29.41.91-.86,2.54-.89,3.43-.05-.09.28-.31.47-.56.59-1.34.63-1.76,1.77-1.76,3.14,0,7.38,0,14.76,0,22.14,0,.16-.01.32.18.62.39-1.49.33-2.91.51-4.29.06-.47.03-.96.01-1.44-.16-5.82.35-11.64.26-17.46-.03-1.86.48-2.47,2.24-3.03.34-.11.67-.24.98-.43,1.89-.49,3.8-.64,5.72-.18.37.33.36.78.38,1.21.16,3.15-.16,6.28-.31,9.42-.15,3.09-.51,6.18-1.12,9.24-.61,3.03-1.64,5.9-3.05,8.65-.24.46-.5.91-.95,1.21-1.65.27-3.3.5-4.97.43-.36-.02-.72-.06-.98-.36Z"/>
    <path class="cls-11" d="m67.34,40.95c0-9.59,0-19.17,0-28.76.22-.65.76-.8,1.33-.79,3.42.03,6.84-.14,10.26.06.14.04.27.1.38.19.28.36.23.76.11,1.14-.77,2.52-.5,5.14-.72,7.71-.59,6.94-2.29,13.57-5.18,19.9-.13.29-.29.57-.59.73-1.87.21-3.75.49-5.59-.17Z"/>
    <path class="cls-16" d="m96.39,70.15c5.02.12,9.77,2,14.06,5.12,1.08.78,1.04,1.15-.13,1.94-6.16,4.13-12.79,4.74-19.79,2.63-2.49-.75-4.84-1.82-7.07-3.17-.76-.46-.98-.91-.2-1.54,3.72-3.03,7.9-4.91,13.13-4.98Z"/>
    <path class="cls-16" d="m9.21,49.92c-2.97-.09-5.76-.86-8.44-2.07-.79-.36-1.09-.7-.33-1.44,4.25-4.16,9.03-7.35,15.07-8.19,4.13-.57,7.9.53,11.4,2.71.75.47.7.93.11,1.51-4.93,4.89-10.83,7.45-17.8,7.47Z"/>
    <path class="cls-4" d="m96.02,96.72c.11,1.13-.57.89-1.21.68-6.35-2.12-10.19-6.6-12.14-12.84-.52-1.67-.9-3.39-.99-5.15-.07-1.26.11-1.4,1.36-1.06,3.8,1.06,6.88,3.15,9.04,6.47,2.35,3.61,3.59,7.61,3.95,11.9Z"/>
    <path class="cls-4" d="m19.36,60.58c-.15-3.47.36-6.83,1.94-9.96,1.56-3.07,3.96-5.25,7.18-6.53.52-.2,1.1-.52,1.17.48.43,5.53-.23,10.8-3.52,15.49-1.36,1.94-3.11,3.4-5.25,4.41-1.21.57-1.42.47-1.51-.9-.07-.99-.01-1.99-.01-2.98Z"/>
    <path class="cls-15" d="m55.78,107.49c2.12-4.49,3.44-9.21,4.3-14.08.99-5.61,1.36-11.26,1.22-16.96,0-.37-.06-.71-.25-1.03.2-.25.48-.31.77-.33.7,0,1.44-.2,2.07.3,0,10.78,0,21.55.01,32.33-.66.55-1.44.32-2.18.32-1.45-.27-2.92-.16-4.38-.19-.54-.01-1.12.08-1.57-.36Z"/>
    <path class="cls-2" d="m55.06,71.58c2.89-4.53,3.75-9.68,4.58-14.86.64-3.98,1.04-7.98,1.23-12.01.08-1.58.13-3.16.18-4.74-.02-.39.29-.43.56-.52.63-.03,1.29-.21,1.83.31,0,10.6,0,21.2,0,31.8-.44.43-.99.36-1.53.36-1.76.05-3.52.04-5.27.02-.55,0-1.13.07-1.59-.37Z"/>
    <path class="cls-15" d="m55.78,35.89c5.18-10.05,7.2-20.61,5.04-31.82.7-.55,1.49-.31,2.27-.25.14.05.26.13.35.24,0,10.61.01,21.21.02,31.82-.63.63-1.46.54-2.25.62-1.49-.02-2.97-.32-4.47-.26-.35.01-.71-.05-.96-.35Z"/>
    <path class="cls-2" d="m73.29,107.49c1.44-2.83,2.75-5.72,3.39-8.86.6-2.95,1.01-5.91,1.2-8.92.25-3.88.49-7.76.44-11.65.19-.24.46-.3.75-.33.55,0,1.13-.14,1.59.33-.38,1.49-.16,3.01-.16,4.51.03,8.02.06,16.03-.1,24.04,0,.36.04.72.06,1.07-.72.5-1.56.28-2.34.38-1.63-.02-3.29.18-4.83-.58Z"/>
    <path class="cls-2" d="m73.05,40.92c.69-2.24,1.76-4.33,2.49-6.55,1.54-4.73,2.48-9.54,2.83-14.5.19-2.71.06-5.47.92-8.1.37-.37.76-.36,1.16-.06.02,4.46.04,8.92.04,13.38,0,5.3-.03,10.59-.04,15.89-.59.5-1.31.51-2.03.52-1.26-.21-2.53-.19-3.8-.2-.54,0-1.13.09-1.57-.37Z"/>
    <path class="cls-2" d="m73.53,74.44c1.42-2.99,2.49-6.09,3.17-9.34.73-3.49,1.21-7.01,1.64-10.55.35-2.82.68-5.65,1.15-8.46.16-.93-.37-1.05-.92-1.31.09-.11.2-.19.33-.24.55-.11,1.11-.21,1.57.25,0,5.65.03,11.3.02,16.95,0,3.86-.06,7.72-.08,11.58,0,.36.06.71.09,1.07-.33.43-.81.4-1.28.4-1.42.06-2.84.03-4.25.02-.5,0-1.04.04-1.44-.38Z"/>
    <path class="cls-19" d="m55.06,71.58c2.32,0,4.64.01,6.96.02.02.88.71,1.68.3,2.63-.17.39-.21.84-.54,1.16-.25.01-.49.02-.74.04-3.43,0-6.87,0-10.3-.02-.9,0-1.76-.05-2.67-.36-1.25-.44-2.56.31-3.84.51-1.61.25-3.1,1.03-4.75,1.08-1.92-.49-2.2-1.35-1.18-3.62,3.05-.71,6.09-1.42,9.14-2.12.3-.07.68-.14.87.2.56,1.02,1.54.81,2.34.68,1.47-.25,2.94-.12,4.41-.19Z"/>
    <path class="cls-2" d="m27.29,38.56c-6.61-1.04-12.94-2.96-17.82-8.09-.3-.32-.58-.66-.84-1.01-.16-.21-.45-.44-.28-.73.2-.37.56-.18.85-.12,2.98.58,5.89,1.37,8.72,2.48,3.28,1.29,6.44,2.8,8.96,5.34.36.37.69.77,1.02,1.17.17.21.4.44.26.75-.16.34-.49.14-.87.22Z"/>
    <path class="cls-2" d="m35.86,36.85c.74-2.85,1.04-5.75,1.25-8.68.17-2.47-.01-4.91-.06-7.36-.05-2.57-.35-5.13-.63-7.69-.08-.67-.58-1.59.42-2.11,1.07,4.57,2.15,9.13,3.21,13.7.79,3.4,1.56,6.8,2.34,10.2-.12.52-.55.69-.99.84-1.38.41-2.78.72-4.17,1.09-.44.12-.91.36-1.37,0Z"/>
    <path class="cls-2" d="m82.43,74.01c-.77-.11-.48-.53-.33-.87,1.09-2.55,2.57-4.85,4.39-6.93,2.63-3,5.65-5.51,9.21-7.33.36-.18.77-.66,1.17-.27.32.31-.06.75-.21,1.09-2.57,6.05-7.03,10.34-12.68,13.51-.52.29-1.06.54-1.56.8Z"/>
    <path class="cls-19" d="m63.22,4.05c-.8,0-1.6.02-2.41.02-4.16,0-8.32,0-12.47,0-1.01-.59-1.26-1.49-.99-2.56.21-.82.71-1.29,1.62-1.28,4.19.02,8.38.03,12.57.04.84,1.08,1,2.2.34,3.38.43-.03,1.05-.41,1.34.4Z"/>
    <path class="cls-19" d="m55.78,35.89c1.85-.05,3.69.11,5.52.25,1.16,1.03,1.24,2.26.24,3.58-.19.02-.38.05-.48.24-.24,0-.47,0-.71,0-1.45-.18-2.89-.19-4.34,0-2.57.04-5.14.04-7.7-.18-1.09-1.26-1.08-2.54.02-3.66,2.47-.42,4.96-.09,7.44-.23Z"/>
    <path class="cls-19" d="m55.78,107.49c2,.12,4.01-.25,6,.24.92,1.43.92,2.28,0,3.55-4.13.01-8.27.03-12.4.04-1.61,0-1.18-1.25-1.31-2.16-.04-1.01.53-1.45,1.46-1.42,2.09.06,4.17-.13,6.25-.24Z"/>
    <path class="cls-19" d="m35.86,36.85c1.85-.47,3.69-.94,5.54-1.4.7.34,1.1.92,1.2,1.67.07.53.3.98.49,1.46-4.31,1.23-8.57,2.64-13.01,3.38-1.63-.76-1.75-2.11-.31-3.47,2.03-.55,4.05-1.09,6.08-1.64Z"/>
    <path class="cls-19" d="m34.45,4.32c-3.67.87-7.34,1.74-11.01,2.61-.35.08-.68.19-1.03.28-1.55-.17-2.45-1.61-1.85-2.99.22-.52.74-.53,1.2-.64,3.67-.87,7.34-1.74,11.01-2.61.82.37,1.1,1.1,1.21,1.9.07.52.17,1,.48,1.43Z"/>
    <path class="cls-19" d="m73.53,74.44c1.92.01,3.85.02,5.77.03.41,1.22.88,2.44-.23,3.55-.25.01-.49.02-.74.03-1.94-.09-3.87,0-5.79.26-.63.24-1.26.46-1.87-.05-1.13-.39-2.26-.35-3.39.03-1.57-1.41-1.56-2.91.02-3.86,2.08,0,4.16,0,6.23,0Z"/>
    <path class="cls-19" d="m78.82,44.74c-.09.01-.17.02-.26.04-1.86-.05-3.72-.05-5.56.26-.77.25-1.54.39-2.31,0-1.11-.51-2.28-.2-3.43-.23-1.03-1.37-1.01-2.19.07-3.86,1.9,0,3.81-.02,5.71-.02,1.84.1,3.7-.16,5.52.25.94,1.22,1.02,2.36.25,3.57Z"/>
    <path class="cls-19" d="m79.06,11.7c-3.36,0-6.72.02-10.08.02-.61,0-1.19.02-1.65.47-.47-.89-1.23-1.67-.9-2.85.22-.8.58-1.19,1.49-1.18,3.63.04,7.26.02,10.89.02.92,1.15.99,2.2.25,3.53Z"/>
    <path class="cls-16" d="m73.29,107.49c1.69.05,3.36.35,5.05.25,1.16,1.02,1.22,2.01.23,3.54-3.56.01-7.11.04-10.67.03-1.18,0-1.79-1.37-1.21-2.72.14-.32.4-.59.6-.88,2.01.15,3.99-.3,6-.23Z"/>
    <path class="cls-8" d="m61.79,75.38c.12-1.12.8-2.25-.09-3.35-.03-.03.21-.28.33-.43.48-.01.95-.02,1.43-.03,1.29,1.34,1.37,2.07.45,3.82-.7,0-1.4,0-2.11,0Z"/>
    <path class="cls-3" d="m61.54,39.73c.47-1.23.53-2.44-.24-3.58.72-.09,1.44-.18,2.15-.27.94,1.3.96,2.59,0,3.88-.64-.01-1.27-.02-1.9-.03Z"/>
    <path class="cls-10" d="m78.57,111.27c.23-1.2.71-2.41-.23-3.54.71-.02,1.42-.03,2.12-.05,1.02.89.86,2.05.43,3.06-.44,1.06-1.53.42-2.33.52Z"/>
    <path class="cls-8" d="m61.78,111.27c.57-1.18.27-2.37,0-3.55.71,0,1.42,0,2.13,0,.09.13.18.26.25.4.45.92.58,1.91-.03,2.73-.56.76-1.53.48-2.35.42Z"/>
    <path class="cls-18" d="m43.1,38.57c-.48-.06-.73-.43-.7-.81.08-.97-.55-1.59-.99-2.31.33-.18.66-.35.99-.53.95.02,1.79.13,2.13,1.28.3,1.01.17,1.78-.73,2.37-.23,0-.46,0-.69,0Z"/>
    <path class="cls-12" d="m63.22,4.05c-.17-.2-.41-.24-.64-.21-.86.12-1.03-.23-.69-.97.43-.94-.39-1.71-.35-2.6.91.02,2.02-.42,2.53.72.5,1.11.15,2.17-.64,3.08-.07,0-.14,0-.21-.01Z"/>
    <path class="cls-3" d="m78.82,44.74c.42-1.22.08-2.4-.25-3.57.62-.07,1.25-.14,1.87-.21,1.15,1.7,1.15,2.4.02,3.82-.55-.01-1.1-.03-1.64-.04Z"/>
    <path class="cls-18" d="m79.06,11.7c.29-1.2.15-2.37-.25-3.53.93-.03,1.96-.27,2.55.73.6,1.03.24,1.97-.92,2.79-.39.02-.77.04-1.16.06-.07-.02-.15-.04-.22-.06Z"/>
    <path class="cls-8" d="m34.45,4.32c-.44,0-.8-.12-.73-.66.13-1.05-.37-1.88-.96-2.68.15-.02.31-.06.46-.07.73-.03,1.52-.74,2.17.19.67.97.64,2.11-.09,3.2-.28,0-.57,0-.85.01Z"/>
    <path class="cls-10" d="m79.06,78.02c.31-1,.66-1.99.07-3.02-.06-.11.1-.35.16-.53.4-.03.8-.05,1.2-.08,1.48,1,1.54,2.38.16,3.67-.53-.01-1.07-.03-1.6-.04Z"/>
    <path class="cls-5" d="m662.04,101.3c-.59,4.97-4.09,8.22-9.49,8.82-3.71.41-7.43.22-11.14.26-7.87.09-15.75.08-23.62.1-6.43.01-12.86.07-19.29-.02-4.06-.06-8.15.16-12.17-.81-5.53-1.34-8.66-4.72-9.49-10.35-.26-1.74-.36-3.49-.37-5.24-.03-20.34-.07-40.69-.07-61.03,0-6.06.11-12.12.14-18.18,0-1.23.55-1.93,1.75-2.18,5.81-1.23,11.62-2.48,17.44-3.7,1.43-.3,2.44.48,2.55,1.94.09,1.11.07,2.23.15,3.34.04.66-.28,1.58.7,1.79.95.21,1.26-.62,1.64-1.28.88-1.56,1.8-3.1,2.63-4.68.57-1.09,1.35-1.51,2.59-1.5,16.23.03,32.46.03,48.69,0,1.17,0,1.93.4,2.52,1.43,2.85,5,4.47,10.35,4.84,16.08.17.83.04,1.67.08,2.51,0,11.43,0,22.86,0,34.29,0,.43-.12.88.12,1.29v35.91c-.28.38,0,.85-.19,1.24Zm-21.64-41.8c0-9.09,0-18.19,0-27.28,0-1.46-.32-1.82-1.69-1.82-12.75-.02-25.5-.03-38.26-.04-1.38,0-1.58.22-1.59,1.62-.03,3.27-.07,6.54-.08,9.8-.03,15.04-.06,30.07-.08,45.11,0,1.27.37,1.63,1.64,1.63,12.71.03,25.42.06,38.13.08,1.55,0,1.8-.25,1.8-1.82,0-9.09,0-18.19,0-27.28.04,0,.08,0,.12,0Z"/>
    <path class="cls-5" d="m151.04,64.51c-3.96,0-7.91,0-11.87,0-1.95,0-2.56.63-2.58,2.57-.05,5.1.1,10.21-.06,15.3-.25,8.19-2.87,15.63-8.5,21.76-3.04,3.31-7.14,4.53-11.49,4.99-1.31.14-2.63.21-3.94.21-1.53,0-2.32-.76-2.34-2.27-.07-4.9-.09-9.81-.14-14.71,0-.94.35-1.66,1.24-1.97,1.88-.66,2.83-2.12,3.45-3.86,1.16-3.25,1.29-6.64,1.2-10.03-.07-3.02-.32-6.04-.5-9.07-.06-1.11-.66-1.76-1.75-1.94-.47-.08-.95-.1-1.43-.13-1.89-.11-2.5-.73-2.45-2.61.1-3.62.23-7.25.34-10.87.03-1.04.01-2.07.06-3.11.06-1.4.8-2.11,2.19-2.14.84-.02,1.68.02,2.52,0,1.31-.04,2.14-.79,2.15-2.06.03-4.51.03-9.01,0-13.52,0-1.35-.88-2.11-2.25-2.06-.84.03-1.67.15-2.51.18-1.59.06-2.53-.9-2.33-2.44.7-5.37,1.43-10.74,2.17-16.1.19-1.41.94-1.96,2.52-1.98,3.48-.03,6.95-.06,10.43-.08,6.27-.03,12.55,0,18.82-.1,6.23-.11,12.46-.03,18.7.03,4.25.04,8.25,1,11.63,3.71,4.36,3.51,5.97,8.23,5.63,13.68-.28,4.44-1.9,8.43-4.43,12.06-1.14,1.63-2.3,3.26-3.42,4.9-1.11,1.62-.48,3.07,1.46,3.36,3.31.51,6.26,1.74,8.81,3.95,3.52,3.04,4.45,7.02,4.35,11.41-.09,4.02.1,8.04.19,12.06.15,6.57.31,13.14-1.04,19.65-1.98,9.57-7.69,15.3-17.31,17.3-10.74,2.24-21.17,1.5-31.35-2.64-1.95-.79-2.3-1.55-1.56-3.51,1.78-4.68,3.57-9.36,5.36-14.04.57-1.49,1.44-1.93,3.02-1.51,3.15.85,6.26,1.89,9.49,2.41,1.86.3,3.73.45,5.59.06,3.43-.73,5.49-3.19,5.99-7.3.7-5.74.99-11.51.64-17.29-.1-1.7-.78-2.33-2.5-2.34-4.08-.01-8.15,0-12.23,0,0,.03,0,.05,0,.08Zm-4.76-35.27c-2.47,0-4.95-.01-7.42,0-1.55,0-2.28.7-2.35,2.23-.04.91,0,1.83,0,2.75,0,2.83-.01,5.66,0,8.49.01,1.88.79,2.62,2.64,2.52.76-.04,1.51-.13,2.26-.23,7.74-1.06,12.47-5.71,14.42-13.04.4-1.48-.46-2.5-2.01-2.51-2.51-.02-5.03,0-7.54,0,0-.07,0-.13,0-.2Z"/>
    <path class="cls-5" d="m427.4,8.38c7.95,0,15.91-.1,23.86.04,5.01.09,9.67,1.5,13.18,5.31,4.13,4.48,4.67,9.88,3.37,15.56-1.22,5.33-3.9,9.89-7.7,13.8-.59.61-1.56,1.19-1.24,2.15.32.93,1.41.72,2.22.79,4.03.35,7.63,1.59,10.37,4.75,2.02,2.34,2.76,5.16,3.16,8.11.31,2.3.35,4.61.38,6.92.08,5.78.21,11.56.22,17.34,0,4.03-.34,8.04-1.39,11.96-2.27,8.45-7.99,13.32-16.33,15.15-10.78,2.37-21.41,1.88-31.69-2.48-1.77-.75-2.13-1.59-1.45-3.37,1.7-4.46,3.4-8.91,5.09-13.37.75-1.96,1.34-2.26,3.34-1.85,4.22.87,8.43,1.78,12.67,2.54,4.36.79,6.86-1.14,7.3-5.5.65-6.42,1.28-12.85,1.91-19.27.16-1.62-.62-2.51-2.24-2.51-8.23-.02-16.47-.03-24.7-.04-1.7,0-2.4.67-2.48,2.35-.24,5.65-.27,11.32-.78,16.95-.58,6.5-2.12,12.73-6.1,18.09-4.36,5.88-10.4,8.02-17.52,7.57-1.19-.08-1.84-.75-1.89-2.06-.16-3.58-.25-7.17-.37-10.75-.04-1.15-.07-2.31-.12-3.46-.04-.95.26-1.7,1.09-2.24,1.13-.74,2.22-1.56,3.35-2.3.73-.48,1.08-1.11,1.08-1.99-.01-6.42,0-12.84-.01-19.27,0-1.43-.66-2.06-2.13-2.19-2.22-.2-2.7-.77-2.75-3.03-.09-4.46-.22-8.92-.31-13.39-.04-2.08.94-2.79,2.97-2.28,3.51.89,4.4.16,4.03-3.47-.39-3.86-.52-7.71-.06-11.57.16-1.38-.63-2.27-2.05-2.37-.92-.06-1.84-.02-2.75-.09-1.67-.13-2.34-.94-2.16-2.61.58-5.19,1.17-10.37,1.76-15.56.16-1.41.9-2.06,2.42-2.08,2.92-.04,5.83-.07,8.75-.08,5.23-.01,10.46,0,15.7,0v-.2Zm7.11,20.83c-2.31,0-4.63,0-6.94,0-1.92,0-2.56.64-2.55,2.6.02,3.67.04,7.33.08,11,.02,1.85.88,2.63,2.72,2.41,2.91-.34,5.71-1.08,8.35-2.36,4.58-2.23,7.27-5.82,7.8-10.93.16-1.56-.59-2.44-2.16-2.46-2.43-.03-4.87,0-7.3,0v-.24Z"/>
    <path class="cls-17" d="m32.51,44.08c0-1.4,1.36-2.69,2.53-2.63.36.02.57.18.38.53-1.96,3.59-.73,7.14.16,10.67,1.29,5.09,2.67,10.15,3.97,15.23.16.6.56,1.61-.18,1.78-.69.16-.66-.95-.8-1.51-1.99-7.78-3.94-15.57-5.91-23.35-.08-.31-.13-.62-.15-.72Z"/>
    <path class="cls-6" d="m49.7,68.76c-.45-.47-.34-.89-.34-1.27,0-8.17,0-16.34,0-24.51,0-2.17.75-2.87,2.92-2.73-1.91,2.84-2,6.07-2.01,9.31-.02,5.58,0,11.16-.01,16.74,0,.83-.12,1.63-.56,2.47Z"/>
    <path class="cls-2" d="m56.01,39.97c1.45-.37,2.89-.37,4.34,0-1.45,0-2.89,0-4.34,0Z"/>
    <path class="cls-13" d="m47.87,106.53c-.6-2.62-1.2-5.23-1.8-7.85-1.41-6.19-2.82-12.39-4.22-18.58-.63-2.79.67-4.2,3.62-3.93-.05.41-.43.43-.69.55-1.78.81-1.96,1.16-1.52,3.03,1.48,6.3,2.94,12.6,4.42,18.89.61,2.59.38,5.22.19,7.89Z"/>
    <path class="cls-14" d="m50.17,104.9c-.51-.46-.36-.89-.36-1.26,0-8.33,0-16.65,0-24.98,0-1.42.92-2.48,2.17-2.51.45-.01.93.07.47.65-1.71,2.18-1.56,4.82-1.66,7.31-.16,4.25-.12,8.51.1,12.77.12,2.34-.08,4.69-.41,7.02-.04.3-.18.59-.31,1Z"/>
    <path class="cls-1" d="m49.63,33.39c-.4-.43-.26-.89-.26-1.31,0-7.97-.01-15.95,0-23.92,0-.67.08-1.36.23-2.01.16-.7.63-1.21,1.37-1.35.33-.06.75-.28,1,.09.21.32-.14.58-.3.83-.91,1.4-.99,3.01-1.15,4.58-.52,5.01-.23,10.03-.23,15.05,0,2.39.19,4.78-.24,7.16-.06.31-.07.64-.41.88Z"/>
    <path class="cls-13" d="m30.73,33.71c-.83-.99-.99-2.07-1.28-3.08-1.9-6.57-3.66-13.17-5.19-19.84-.52-2.28.58-3.87,2.95-4.18,0,.11.05.27,0,.33-1.43,1.54-1.23,3.24-.76,5.13,1.65,6.67,3.03,13.41,4.32,20.16.08.42.16.86-.03,1.47Z"/>
    <path class="cls-7" d="m70.7,45.04c.77,0,1.54,0,2.31,0-.11.39-.41.41-.75.45-1.71.22-2.31.82-2.34,2.55-.06,3.3-.01,6.61-.06,9.91-.05,3.74-.15,7.48-.24,11.22-.02.8-.19,1.58-.44,2.34-.1.32-.14.82-.62.72-.4-.08-.24-.53-.24-.83-.02-2.71-.04-5.42-.05-8.12,0-4.58,0-9.16,0-13.74,0-.88.07-1.76.28-2.6.28-1.09,1.22-1.5,2.15-1.89Z"/>
    <path class="cls-13" d="m70.67,78.27c.62.02,1.24.03,1.87.05.1.53-.3.43-.6.49-1.92.43-2.28.87-2.31,2.85-.09,6.3-.13,12.59-.26,18.89-.03,1.5.02,3.03-.51,4.49-.09.25-.18.54-.56.64-.38-.46-.26-1.04-.26-1.56-.02-7.3-.03-14.6-.03-21.9,0-2.43.44-3.06,2.65-3.95Z"/>
    <path class="cls-7" d="m68.76,39.31c-.52-.57-.44-1.03-.44-1.46,0-7.53.02-15.06-.02-22.58-.01-2.25,1.6-3.74,3.83-3.2-2.13.55-2.28,2.01-2.28,3.64-.03,6.29-.1,12.58-.19,18.87-.02,1.57-.12,3.14-.91,4.73Z"/>
  </g>
  <g id="Layer_2" data-name="Layer 2">
    <path class="cls-5" d="m483.31,55.82c0-7.74-.04-15.47.01-23.21.04-5.94.2-11.87.31-17.81.03-1.37.59-2.02,1.95-2.3,5.78-1.19,11.56-2.38,17.34-3.56,1.58-.32,2.7.6,2.62,2.2-.07,1.59-.32,3.18-.07,4.77.07.46.07,1.07.62,1.19.46.1.77-.35,1.03-.7,1.25-1.76,2.4-3.56,2.85-5.72.35-1.69.88-2.1,2.64-2.1,15.91,0,31.82,0,47.72-.02,1.16,0,1.96.49,2.74,1.21,3.17,2.93,4.51,6.77,5.34,10.84.75,3.68.97,7.42,1.01,11.17.24,21.25.16,42.51.14,63.76,0,2.06-.17,4.13-.63,6.17-1.18,5.24-4.37,7.99-9.74,8.41-3.27.25-6.55.2-9.82.27-9.67.2-19.34.25-29.01.14-7.35-.09-14.69-.06-22.03-.42-2.4-.12-4.77-.47-7.04-1.26-4.79-1.67-6.91-5.33-7.56-10.11-.42-3.1-.3-6.21-.32-9.31-.08-11.2-.03-22.41-.03-33.61-.03,0-.05,0-.08,0Zm22.27,31.11q0,1.68,1.64,1.68c12.79,0,25.58,0,38.37,0,1.57,0,1.61-.04,1.61-1.61,0-18.34,0-36.69,0-55.03,0-1.5-.07-1.57-1.53-1.57-12.83,0-25.66,0-38.49,0-1.59,0-1.6.01-1.6,1.61,0,9.17,0,18.34,0,27.52s0,18.26,0,27.4Z"/>
  </g>
</svg>