<?xml version="1.0" encoding="UTF-8"?>
<svg xmlns="http://www.w3.org/2000/svg" viewBox="0 0 2787.61 1837.12">
  <defs>
    <style>
      .cls-1 {
        fill: #005ccc;
      }

      .cls-1, .cls-2, .cls-3, .cls-4, .cls-5, .cls-6, .cls-7, .cls-8 {
        stroke-width: 0px;
      }

      .cls-2 {
        fill: #180500;
      }

      .cls-3 {
        fill: #fff;
      }

      .cls-4 {
        fill: #4ad1ff;
      }

      .cls-5 {
        fill: #e9eceb;
      }

      .cls-6 {
        fill: #dfe0de;
      }

      .cls-7 {
        fill: #e7e9e8;
      }

      .cls-8 {
        fill: #fdfdfd;
      }
    </style>
  </defs>
  <g id="Layer_7" data-name="Layer 7">
    <path class="cls-2" d="m2787.26,1412.75c-.12-15.66-.4-31.33-.89-46.99-.31-9.87-3.97-13.74-13.76-15-3.95-.51-7.98-.5-11.98-.49-3.77.01-5.52-1.6-5.36-5.4.1-2.33-.03-4.67-.04-7-.13-55.33-.24-110.66-.42-165.99-.04-10.67-.68-21.28-3.29-31.73-11.65-46.71-36.96-84.33-74.85-113.82-20.24-15.75-40.17-31.9-60.17-47.95-3.62-2.91-7.35-5.86-9.23-10.34-9.48-22.54-22.83-42.88-35.94-63.36-58.93-92.02-175.42-281.98-175.42-281.98-270.94,1.46-541.89,2.93-812.83,4.39,6.18-18.37,26.14-69.71,79.7-107.77,44.57-31.68,89.32-37.76,109.29-39.25h617.33c-13.94-88.89-48.05-169.52-101.7-241.95-43.49-58.72-95.75-108.27-158.12-146.56-65.64-40.3-136.41-67.76-212.29-81.61-21.26-3.88-42.68-7.69-64.23-8.42-36.63-1.25-73.32-1.06-109.98-1.05-423.31.12-846.63-1.32-1269.94.24-16.69.06-33.25,1.23-49.66,4.64-71.8,14.93-126.68,54-164.7,116.39-20.21,33.15-30.69,69.61-29.16,108.55,2.17,55.07,21.54,103.81,57.09,146.13,32.41,38.58,72.54,65.27,120.79,79.68,7.3,2.18,14.71,4.62,22.22,5.35,22.86,2.23,45.74,4.08,68.79,4.06,185.32-.17,370.65-.03,555.97.01,20.31,0,40.62,0,62.16,0-6.81,17.2-12.54,33.78-20.07,49.67-3.11,2.34-4.15,5.87-5.48,9.27-17.53,44.53-25.66,91.13-31.44,138.37-2.02,16.53-.15,33.18-3.11,49.57-1.32,8.61-.63,17.29-.73,25.94-.15,13.8-.36,14.12-13.86,14.18-169.86.74-339.73-1.15-509.6,1.66-59.76.99-109.4-23.08-146.34-71.03-23.63-30.68-36.58-65.38-38.19-104.19-2.61-17.67-1.79-35.46-1.99-53.22-.04-3.92.25-7.96-2.35-11.38-37.65-1.17-75.31-.14-112.96-.32-4.42-.02-6.96,1.58-7.55,6.01-.53,3.95-1.4,7.89-1.57,11.85-.88,20.32-1.35,40.64-1.11,60.98.2,17.36,1.74,34.5,5.36,51.56,11.66,54.98,36.08,102.85,77.94,140.97,29.71,27.06,63.56,47.15,102.51,57.96,26.44,7.34,53.33,10.83,80.86,10.81,187.66-.15,375.33.02,562.99.09,6,0,12,.05,18,.16,2.38.04,4.6.29,5.22,3.4,2.93,14.65,7.49,28.95,9.49,43.81-1.12,2.26-.59,4.54.15,6.72,5.91,17.43,11.49,34.99,19.74,51.53,3.1,5.99,6.02,12.06,8.26,18.43,21.89,47.65,46.83,93.44,81.57,133.2,11.45,14.11,22.93,28.21,36.64,41.78-5.2,1.81-9.16,1.22-13.01,1.22-222.8.03-445.6.02-668.39.03-48.73,0-93.2-13.11-132.9-41.99-41.89-30.46-62.86-72.81-71.23-122.62-1.39-9.02-3.99-17.87-3.93-27.09-2.47-14.12-2.97-28.29-.9-42.52.31-6.02,4.06-11.93.53-18.06-1.15-.1-2.29-.2-3.44-.3-32.9,1.33-65.82.18-98.73.63-3.88.05-8.04-1.22-11.55,1.66-1.73,5.01-4.06,9.8-4.22,15.31-.88,29.95-3.35,59.86.06,89.85,2.91,25.59,7.62,50.67,17.1,74.72,27.57,69.95,75.95,119.41,145.66,147.82,36.53,14.89,74.49,21.61,113.98,21.58,236.58-.18,473.16-.04,709.74.02,5.65,0,11.31.39,16.96.6,5.01,2.15,10.28,2.47,15.66,2.46,26.66-.06,53.34.68,79.96-.27,18.95-.68,35.79,3.65,52.58,12.36,45.61,23.64,92.48,44.43,142.11,58.45,41.41,11.69,83.06,22.02,126.11,25.59,8.02.67,8.55,1.48,3.55,9.2-19.09,29.44-36.32,59.88-48.33,92.91-5.29,14.56-13.53,20.01-29.63,19.99-319.87-.48-639.75-.35-959.62-.38-19.98,0-39.85,3.17-59.87,2.12-3.39-.18-6.62.63-9.54,2.45-33.99.17-67.98.29-101.96.52-12.57.08-24.44,2.92-35.06,9.96-16.64,11.03-24.12,32.86-18.41,53.03,4.79,16.91,21.77,35.23,42.98,34.08,4.32-.23,8.66.04,13,.04,88.33-.05,176.66-.14,264.99-.16,18.33,0,36.66.33,55,.27,4.68-.02,6.56,1.49,6.41,6.35-.25,7.99.09,16,.13,23.99.15,26.23,4.18,51.8,13.68,76.3,12.08,31.13,30.57,57.51,58.34,76.8,1.7,1.18,4.55,1.35,4.8,4.31-2.17,1.64-4.53.82-6.72.82-112.66.07-225.32.09-337.98.14-5,0-10.03-.05-14.98.5-16.03,1.79-28.21,11.7-31.42,25.2-5.08,21.35,8.2,41.25,30.02,45,7.28,1.25,14.63.81,21.95.81,229.32-.1,458.64-.6,687.96-.27,307.65.44,615.3-.96,922.95-.11,184.99.51,369.98-.27,554.97-.48,3.66,0,7.38.18,10.99-.3,13.78-1.85,24.63-8.32,30.38-21.4,5.36-12.18,4.63-24-3.79-34.86-7.52-9.7-17.7-13.83-29.65-13.94-26-.23-51.99-.28-77.99-.51-2.01-.02-4.53,1.4-6.39-1.66,8.86-3.46,17.25-7.4,24.79-12.87,41.15-29.82,64.34-70.23,70.37-120.49.73-6.05,2.38-9.59,8.48-11.55,12.12-3.91,23.27-10.19,33.62-17.43,36.53-25.56,58.74-59.29,58.41-105.44-.2-27.66-.14-55.33-.35-82.99Zm-1667.59,352.25c-.25-2.51,1.16-2.89,2.25-3.5,36.41-20.12,59.39-51.55,75.06-89.13,4.62-11.08,8.52-22.43,11.63-34,1.39-5.17,3.89-6.71,9.09-6.68,42.65.31,85.3.32,127.95.49,7.29.03,7.37.16,8.71,7.49,2.47,13.46,5.98,26.63,10.93,39.4,14.4,37.12,40.54,63.55,74.99,82.43,1.65.91,3.82,1.02,4.93,3.48h-325.53Zm883.19-.02c-.72-1.74,1.15-2.36,2.41-3.09,39.38-22.99,64.72-57.53,81.28-99.16,3.19-8.01,5.61-16.39,7.6-24.79,1.18-4.96,3.45-6.36,8.25-6.26,13.31.26,26.64.05,39.96.1,48.95.18,97.9.4,146.85.59,9.27.03,9.56-.06,11.08,9.66,4.79,30.74,17.49,57.83,37.46,81.49,13.39,15.87,28.56,29.78,47.32,39.28.44.22.62.97,1.34,2.18h-383.55Z"/>
  </g>
  <g id="Layer_1" data-name="Layer 1">
    <path class="cls-4" d="m1199.51,1254.2c4.03-1.23,8.21-.76,12.32-.75,38.04.05,76.07.32,114.11.16,9.34-.04,17.69,1.8,25.97,5.47,41.02,18.18,82.14,36.25,125.26,50.26,43.09,14,87.23,24.84,132.35,32.49,21.76,3.69,43.51,7.33,65.72,8.25,2.91.12,5.77,1.15,9.29,1.9-6.41,11.15-13.91,21.08-21.18,31.13-16.7,23.09-29.18,48.02-41.06,73.24-10.05,21.35-10.18,21.31-35.72,21.32-357.01.06-714.03.16-1071.04.1-28.98,0-57.89,2.41-86.88,1.59-1.87-.05-2.62-12.58-1.67-18.78,6.12-39.67,23.41-75.1,53.15-105.15,27.46-27.74,61.83-45.99,102.85-54.39,14.95-3.06,29.86-2.96,44.87-2.96,179.95-.02,359.9.05,539.85.09,7.53,0,15.06-.28,22.58-.07,11.21.3,17.13-5.94,21.56-13.61,4.39-7.61,2.42-14.98-3.16-21.55-2.68-3.16-6.1-5.83-9.18-8.72Z"/>
    <path class="cls-4" d="m345.05,579.76c-3.42-21.72-3.71-43.52-1.57-65.37,10.65-.13,21.3-.38,31.94-.38,235.78-.05,471.55-.07,707.33-.08,4.64,0,9.35-.45,13.84,1.28.25,3.48-1.43,6.47-2.61,9.52-13.44,34.57-21.78,70.41-27.17,107.02-3.49,23.7-6.48,47.44-6.54,71.45,0,2.94.45,6.03-1.39,8.71-4.04,3.12-8.82,2.64-13.45,2.64-133.31.04-266.63.68-399.93-.35-42.26-.33-84.48.96-126.74.57-74.94-.69-138.14-42.15-167.04-111.09-3.22-7.69-5.08-15.78-6.66-23.93Z"/>
    <path class="cls-4" d="m1082.67,901.69c8.17,18.63,13.49,39.1,22.2,57.82-14.13-.78-19.43-30.14-24.59-42.78-1.14-5.1-2.79-9.93-9.33-9.77-3.61.09-6.74,1.71-3.08,5.32,13.04,13.79,14.81,63.82-7.04,26.54-8.61-12.78-14.85,8-23.56-.65-14.53-17.61-65.36,8.2-73.17-13.36,18.28-21.24,58.18-.71,82.94-14.86-66.86-9.78-139.48-.36-208.35-3.53-63.12-.33-451.15.29-267.08,2.79,40.43.09,287.47,13.7,113.01,25.13,7.48,1.88,11.02,8.04,2.99,11.53-30.22,31.84-83.23,2.21-116.35,21.7-19.35,20.38-58.39,4.58-84.7,12.76-32.05,8.85-63.84,51.73-99.52,37.11-30.69-10.85-28.46-61.01-48.09-65.35-8.23-10.85-1.29-35.24.23-49.76,247.78-2.12,495.7-.63,743.49-.63Z"/>
    <path class="cls-3" d="m2657.11,1342.6c-.15-31.67-.27-63.33-.55-95-.15-17.33.05-34.65-1.36-51.96-3.7-45.55-23.42-82.04-60.8-108.66-11.12-7.92-22.55-15.4-33.56-23.47-19.34-14.18-37.62-29.76-57.07-43.82-11.5-8.31-23.57-12.25-38.03-12.18-109.33.52-218.66.51-327.99.55-148,.05-295.99.05-443.99-.04-29.34-.02-58.52-.86-86.99-9.91-30-9.53-59.31-20.41-84.93-39.02-46.72-33.94-80.35-78.51-102.88-131.33-18.75-43.95-24.68-90.27-22.99-137.85,2.21-61.93,20.58-118.69,55.22-169.74,32.61-48.08,75.77-84.68,128.12-110.04,40.89-19.81,83.99-31.99,129.49-34.49,37.13-2.04,73.81,1.74,110.1,9.91,14.97,3.37,30.09,8.32,35.3,9.94,38.41,12,64.7,26.18,69.45,26.04,0,0,174.34-.91,248.6-4.08,9.89-1-9.83-23.67-19.51-40.19-30.59-52.19-70.92-82.41-101.44-105.18-62.95-46.94-133.36-75.86-210.57-89-50.96-8.67-102.2-8-153.49-4.99-38.69,2.27-76.7,8.83-113.94,19.8-68.61,20.21-130.56,53.45-187.23,96.59-35.99,27.4-66.32,60.49-93.82,96.4-61.4,80.2-97.88,170.54-111.13,270.36-9.06,68.29-3.3,135.84,14.89,202.05,25.84,94.01,76.33,173.21,148.52,238.43,42.89,38.75,91.02,69.55,145.63,89.24,61.31,22.11,124.72,33.3,189.9,33.95,41,.41,82,.72,123,.26,28.55-.32,54.43,7.34,78.85,21.67,27.54,16.16,49.55,38.09,68.18,63.65,7.45,10.22,14.63,20.68,21.31,31.42,4.47,7.19,9.57,10.74,18.6,10.07,13.27-.98,26.65-.45,39.98-.46,198.33-.11,396.66-.21,594.99-.32,8,0,16,.04,24-.12,8.13-.16,8.19-.26,8.15-8.5Z"/>
    <path class="cls-4" d="m394.72,289.82c-9-26.46-4.4-51.63,9.72-74.61,22.3-36.28,55.28-56.65,98.22-57.17,70.28-.85,140.57-.41,210.85-.36,213.19.15,426.38.37,639.56.62,8.18,0,16.35.62,26.86,1.05-4.63,3.48-7.36,5.71-10.27,7.69-22.83,15.57-45.24,31.72-66.37,49.54-22.96,19.36-43.35,41.38-64.26,62.84-15.34,15.74-29.02,32.94-42.75,50.08-6.49,3.96-13.73,2.3-20.5,1.95-10.99-.58-21.97-.68-32.96-.68-224.89-.02-449.78-.08-674.67.08-25.12.02-45.97-8.99-63.84-26.14-4.45-4.27-7.48-9.23-9.62-14.89Z"/>
    <path class="cls-3" d="m1851.01,683.46c3.94.08,7.87.16,11.81.25,2.81,1.53,5.87.86,8.82.86,98.13.04,196.26.04,294.4,0,2.93,0,6.01.78,8.76-.99,22.62-.96,45.26-.75,67.89-.83,5.12-.02,8.81,2.41,12.49,5.36,10.97,8.81,20.23,19.28,28.96,30.22,23.68,29.67,45.15,60.97,67.77,91.42,22.81,30.73,45.38,61.63,68.01,92.49,1.76,2.4,3.19,5.03,4.77,7.55-.74,4.72-4.48,2.43-6.83,2.64-8.31.77-16.76-1.06-25.03,1.17-9.8.75-19.61.92-29.42.26-3.57,1.25-7.27.64-10.9.64-42.65.05-85.31-.43-127.96.18-34.05.49-67.54-2.43-101.19-8.11-54.97-9.28-106.34-26.93-153.83-56.24-32.03-19.77-57.2-46.63-80.5-75.48-15.7-19.43-29.78-40.13-45.98-59.2-6.74-7.93-14.3-14.85-22.16-21.57-2.74-2.34-6.06-5.24-4.56-9.24,1.55-4.12,5.87-2.18,8.89-2.12,8.6.16,17.26-1.15,25.81.74Z"/>
    <path class="cls-4" d="m1112.71,977.58c20.55,42.42,41.82,84.89,72.52,121.06,3.19,5.38,12.24,13.61.41,13.68-220.05,4.72-440.28,1.32-660.4,2.34-88.04,4.28-179.69-60.22-188.37-151.05,13.93,11.9,15.22,37.85,29.85,52.34,29.68,19.64,51.34,62.62,92.6,52.99,31.26-2.95,49.16-34.85,80.03-34.14,36.87-10.5,74.47-13.68,114.24-12.08,146.06-14.35,295.72,11.3,436.24-29.66,11.58-11.49-6.5-43.02,22.88-15.49Z"/>
    <path class="cls-4" d="m1112.71,977.58c-4.14.55-6.82-1.81-9.48-4.51-18.41-18.2,4.48,27.77-12.88,22.73-155.17,43.76-325.13,12.69-487.2,32.37-8.09-4.27-14.05-5.66-21.22,2.72-12.53,1.66-10-10.09-26.56,4.33-43.09,3.17-44.19,15.49-81.93,34.26-27.7,7.97-57.67,3.53-74.08-23.15-21.02-18.23-44.84-31.8-53.71-60.96-14.33-19.66-10.02-94.7-8.8-40.16.02,1.88-.71,4.55,1.7,5.21,16.76-14.9,20.26,55.66,47.82,63.54,20.48,15.18,44.24-12.5,63.23-13.83,12.45-10.36,27.82-25.86,44.64-22.98,23.47-2.39,46.37-2.16,69.14-4.18,9.11-.12.37-11.94,8.86-12.09,33.28-7.35,68.9,4.1,100.42-7.72,9.34-1.15,9.6-11.06,18.48-12.46-3.99-7.08-12.81,2.15-15.39-4.39,7.33-10.31,25.88-1.77,35.85-6.65,125.28-9.69-196.89-18.67-219.96-20.04,126.4-16.68,377.74-.51,546.09-6,55.36,14.88-63.46,13.26-70.54,18.65-6.33,8.66,14.11,11.93,19.23,5.67,2.69-2.68,5.71-1.97,8.74.8,11.48,9.53,37.8-9.41,44.48,7.5,5.69,11.22,11.95-27.24,29.47,10.82,12.24,17.79,4.19-33.28-5.62-34.29-11.25-10.67,21.67-15.07,19.28,1.51,3.48,25.95,22.28,41.39,29.92,63.31Z"/>
    <path class="cls-6" d="m1995.78,1435.88h15.64c222.9,0,445.81,0,668.71.01,1.67,0,3.33,0,5-.05,2.29-.07,4.12.7,4.03,3.24-.52,14.6,1.47,29.37-2.18,43.77-4.49,17.71-15.34,27.24-33.53,29.41-6.26.75-12.64.79-18.96.79-111.29-.06-222.57-.24-333.86-.28-71.64-.03-143.27-.17-214.91.43-15.97.13-29.23-4.99-41.65-13.99-14.3-10.36-24.59-24.29-33.99-38.9-4.96-7.71-10.55-15.14-14.32-24.43Z"/>
    <path class="cls-6" d="m1851.01,683.46h-33.3c.06,5.97,3.76,8.37,6.7,10.32,11.92,7.88,20.26,19.23,29.01,29.96,13.8,16.94,25.9,35.27,39.78,52.14,20.93,25.42,43.04,49.92,71.08,67.87,25.23,16.16,52.01,29.3,80.04,40.16,26.53,10.28,54.37,14.12,81.89,19.85,10.24,2.13,20.67,3.13,30.75,7,7.43,2.85,16.36,2.35,24.63,2.38,56.3.17,112.59.08,168.89.11,4.31,0,8.67-.52,12.93.62-3.54,1.41-7.25.77-10.87.8-66.29.68-132.59.33-198.88,0-97.27-.5-194.56.07-291.83.68-9.83.06-15.7-2.96-21.37-10.81-29.46-40.77-57.44-82.54-85.3-124.4-20.29-30.5-40.73-60.89-61.11-91.33-1.1-1.64-2.6-3.05-2.78-5.21,1.03-2.64,3.36-1.56,5.12-1.56,48.97.05,97.95.16,146.92.31,2.6,0,5.36-.69,7.72,1.11Z"/>
    <path class="cls-1" d="m340.89,989.71c5.58,5.51,8.28,12.76,11.67,19.56,9.41,18.88,21.16,36.24,36.15,50.97,23.96,23.56,52.69,39.14,85.46,46.64,7.97,1.82,16.28,2.54,24.64,2.89,97.84,4.13,195.72,1.08,293.57,1.65,97.92.58,195.87.96,293.77-.43,33.56-.48,67.15-.7,100.72-1.43,1.99-.04,4.03.17,5.56-1.53,7.18,6.02,12.38,13.82,18.2,20.98,7.73,9.53,16.96,17.65,25.39,27.6-3.06,1.49-5.71.99-8.18.99-229.22-.01-458.44.17-687.66-.27-50.86-.1-96.31-17.11-136.09-49.19-25.13-20.27-41.76-46.25-52.87-76.05-5.09-13.67-9.72-27.57-10.33-42.38Z"/>
    <path class="cls-1" d="m394.72,289.82c6.77,6.83,12.93,14.45,20.45,20.31,14.48,11.3,30.95,17.61,49.82,17.59,153.92-.21,307.84-.28,461.76-.26,79.29.01,158.58.21,237.87.58,10.55.05,21.19-.28,31.69,1.47-8.85,12.87-18.07,25.51-25.35,39.37-1.78,3.38-4.07,4.92-7.88,4.78-4.66-.18-9.33,0-14,0-220.31.03-440.62-.28-660.93.35-48.61.14-81.23-33.06-92.74-73.27-1.02-3.55-1-7.24-.69-10.91Z"/>
    <path class="cls-1" d="m345.05,579.76c6.59,15.19,12.48,30.62,20.97,45.01,25.93,43.95,63.65,71.39,113.2,82.9,10.06,2.34,20.21,3.69,30.56,3.67,25.32-.05,50.66.57,75.95-.31,11.84-.41,23.73.7,35.57-1.07,8.27-1.23,16.47,1.45,24.83,1.45,131.59-.07,263.18.06,394.77.16,5.99,0,11.99.22,17.98.34-.06,11.66-.04,23.32-.2,34.98-.12,8.59-.23,8.63-9.15,8.67-7,.04-13.99-.06-20.99-.05-140.6.13-281.21.03-421.81.62-23.61.1-47.25.85-70.87,1.21-30.43.47-59.56-5.33-87.03-18.28-22.56-10.64-41.58-26.25-58-44.97-21.76-24.79-35.6-53.62-42.62-85.72-2.05-9.38-3.77-18.9-3.15-28.62Z"/>
    <path class="cls-8" d="m1776.7,1709.62c-18.74-4.39-33.99-14.88-45.72-29.44-28.89-35.86-40.82-77.14-36.14-123.04,1.26-12.34,4.83-24.15,9.25-35.69,5.97-15.62,13.47-30.5,23.45-43.93,29.56-39.76,75.47-49.38,118.82-25.41,25.12,13.89,41.54,34.87,51.3,61.49,16.49,44.98,14.46,89.46-4.63,133.07-5.97,13.65-13.57,26.49-25.81,36.09-7.86,6.17-14.22,13.98-23.02,19.36-7.36,4.51-14.76,7.96-23.12,9.58-4.54,2.25-9.72-.62-14.25,1.77-4.68.71-9.35.66-14.03-.05-2.66-1.8-5.94-.15-8.67-1.55l-.74.14-.58-.48c-1.66-1.84-4.4-.19-6.1-1.9Z"/>
    <path class="cls-7" d="m882.47,1598.51c-.37,16.11.88,32,6.66,47.19,2.97,7.82,7.21,14.92,12.75,21.31,12.18,14.04,31.79,15.1,45.9,1.38,11.51-11.18,17.11-25.22,19.18-40.8,1.98-14.89,2.24-29.88,2.08-44.89-.09-8.64,0-8.66,8.91-8.68,10-.02,19.99.04,29.99-.04,3.91-.03,6.25,1.11,6.43,5.57,1.36,33.69-.84,66.53-18.99,96.52-12.96,21.42-30.67,36.09-55.48,40.38-22.72,3.93-43-3.3-59.72-18.62-19.59-17.94-29.11-41.15-30.36-67.5-.81-16.97-.51-33.94,4.08-50.62,1.24-4.5,2.83-6.13,7.31-5.81,4.98.35,10,.11,14.99.3,7.46.29,7.48.36,7.12,8.33-.24,5.32-.57,10.65-.85,15.97Z"/>
    <path class="cls-6" d="m2174.79,683.58c-2.3,2.75-5.49,1.92-8.38,1.92-98.38.04-196.77.04-295.15,0-2.9,0-6.06.8-8.45-1.79,2.31-.15,4.62-.45,6.93-.44,99.05.57,198.09.54,297.14-.21,2.63-.02,5.27.34,7.91.52Z"/>
    <path class="cls-5" d="m1806.82,1713.47c4.4-3.43,9.46-1.49,14.25-1.77-4.49,2.69-9.37,2.24-14.25,1.77Z"/>
    <path class="cls-5" d="m1784.13,1711.87c3.03-.29,6.17-1.15,8.67,1.55-3.09.63-6.05.48-8.67-1.55Z"/>
    <path class="cls-5" d="m1776.7,1709.62c2.32-.29,4.59-.41,6.1,1.9-2.3.21-4.35-.37-6.1-1.9Z"/>
    <path class="cls-4" d="m854.35,942.82c-2.43-.47-3.27,1.84-4.79,2.94-1.82,1.31-3.54,1.85-5.24-.08-1.49-1.69-1.76-3.64-.55-5.49,1.09-1.66,2.61-3.02,3.76-4.64,1.53-2.16,1.53-4.37-.45-6.3-1.86-1.81-3.8-1.17-5.21.44-3.01,3.45-9.61,3.65-8.34,11.24.59,3.5-7.63,6.68-12.63,4.05-5.26-2.77-9.36-1.38-14.06.3-4.33,1.54-8.7,3.44-13.46.85-1.33-.72-3.8-1.11-4.82-.37-7.51,5.45-16.24-.39-23.9,2.85-3.14,1.33-4.81-1.49-7.08-2.62-2.96-1.47-5.75-3.15-9.4-1.64-8.3,3.44-8.88,3.15-15.17-5.65,4.99.41,9.24.2,12.51-3.69,2.23-2.65,4.65-.47,6.93,1.12,7.03,4.93,7.82,4.78,14-1.04,1.15-1.08,2.94-3.45,3.93-2.07,4.27,5.91,11.7.23,16.26,5.01,2.73,2.86,5.43-1.05,8.15-.6,1.31-3.18-1.39-4.55-2.03-6.62-2.46-7.88-1.19-11.07,6.94-10.78,6.52.23,13.06-1.66,19.7.55,5.38,1.79,11.04-2.61,16.59-.9,5.34,1.64,10.7,1.03,15.61-.32,12.69-3.5,25.81-.4,38.57-3.5,6.6-1.61,13.78-.21,20.69,1.52,12.36,3.09,25.08,2.12,37.69,2.2,3.89.02,7.98-.52,11.05,3.46-2.74,4.47-6.62,7.37-11.72,8.36-4.14.81-6.77,1.9-2.95,6.25,1.29,1.47,1.67,3.15.02,4.3-7.62,5.32-14.34,13.38-25.33,9.45-1.99-.71-3.32-.43-4.2,1.12-1.83,3.26-4.83,3.37-7.82,2.99-11.34-1.45-22.79.19-34.19-1.63-4.69-.75-9.46-5.13-14.77-1.18-.78.58-1.66-1.71-2.55-2.61-2.08-2.12,1.41-5.41-1.72-7.26Z"/>
    <path class="cls-5" d="m1712.94,1578.39c-1.39-23.41,3.68-45.18,14.31-65.61,8.78-16.86,20.83-30.81,38.16-39.41,22.7-11.26,45.16-9.3,66.61,3.04,28.97,16.67,44.06,43.07,50.96,75.05,3.1,14.39,5.06,28.87,3.71,43.46-2.67,28.87-9.45,56.3-31.55,77.36-9.04,8.61-19.53,14.84-31.13,19.26-9.68,3.69-19.85,2.54-29.64,1.62-8.46-.79-16.8-3.78-24.97-6.47-12.89-4.25-21.46-14.26-29.94-24.09-15.99-18.52-22.45-41.11-26.33-64.55-1.07-6.48-.16-13.3-.16-19.66Z"/>
    <path class="cls-3" d="m2415.7,896.5l119.78,147.51c-73.79-.2-147.58-.41-221.36-.61-34.62-43.07-69.23-86.14-103.85-129.21,68.48-5.9,136.96-11.8,205.43-17.69Z"/>
    <path class="cls-1" d="m418.98,1481.6l1205.49-3.22s8.37-35.05,14.92-55.33l-1210.44,9.7s-6.2,26.34-9.97,48.86Z"/>
    <path class="cls-2" d="m380.44,1527.63s42.31-205.75-111.1-385.36l207.94,66.36h921.06l378.36,106.65-128.4,197.93-1267.86,14.43Z"/>
    <ellipse class="cls-2" cx="979.3" cy="1554.12" rx="180.72" ry="205.76" transform="translate(-716.8 2259.5) rotate(-80.37)"/>
    <ellipse class="cls-7" cx="930.01" cy="1606.89" rx="114.08" ry="84.34" transform="translate(-767.43 2359.05) rotate(-83.84)"/>
  </g>
  <g id="Layer_8" data-name="Layer 8">
    <path class="cls-2" d="m157.4,1318.79c34.96,0,69.93,0,104.89,0,5.34,0,10.6.28,15.79,1.87,16.45,5.04,24.55,18.56,21.13,35.4-9.55,47.03-44.06,66.46-80.14,66.77-53.61.46-107.22.06-160.83.08-12.29,0-23.43-3.2-34.04-9.64-21.64-13.15-31.36-43.98-18.33-68.59,9.03-17.06,24.97-24.91,43.64-25.26,35.95-.68,71.92-.2,107.88-.2,0-.14,0-.28,0-.43Z"/>
    <path class="cls-6" d="m1549.31,685.61c3.57-.63,4.75,2.15,6.55,3.8,16.66,15.29,29.65,33.36,42.28,51.61,36.81,53.17,74.62,105.67,113.66,157.37,3.65,4.84,7.03,9.86,11.53,16.19-13.06.83-24.41.17-35.56-2.39-19.52-4.48-36.08-14.49-51.44-26.33-41.69-32.15-69.03-73.29-83.31-122.37-7.22-24.82-6.22-50.2-4.9-75.56.04-.82.81-1.61,1.18-2.32Z"/>
    <path class="cls-2" d="m1852.47,1586.9c-.67,17.46-3.89,33.65-12.55,48.99-17.2,30.47-58.53,33.31-81.28,1.89-11.66-16.1-14.9-35-14.88-54.78.01-10.37.54-20.51,3.22-30.46,4.8-17.77,14.02-32.29,31.41-40.2,20.04-9.11,42.95-3.39,56.43,13.93,6.41,8.23,11.29,17.27,13.34,27.58,2.19,11.03,6.12,21.85,4.29,33.05Z"/>
    <ellipse class="cls-2" cx="926.43" cy="1604.02" rx="47" ry="76.39"/>
    <path class="cls-2" d="m2394.58,531.67c-177.38-.62-354.76-1.24-532.14-1.87-3.66-8.03-10.42-19.79-22.58-30.09-27.94-23.67-62.13-20.82-69.74-20,206.31-.7,412.61-1.4,618.92-2.11,1.37,8.79,2.59,18.05,3.57,27.77.92,9.13,1.56,17.91,1.97,26.3Z"/>
  </g>
  <g id="Layer_10" data-name="Layer 10">
    <path class="cls-2" d="m2038.48,1212.86c0-13.31-.22-26.63.05-39.94.46-22.29,14.51-40.64,35.93-47.47,15.83-5.04,32.04-6.11,48.38-3.78,26.12,3.72,48.2,26.24,52.05,52.32,1.27,8.61,1.28,17.24,1.27,25.9,0,18.97-.37,37.95.06,56.92.67,29.9-20.23,51.58-47.86,56.29-17.39,2.96-35.12,3.61-52.24-2.64-21.41-7.81-37.07-28.8-37.85-51.67-.52-15.29-.1-30.62-.1-45.93.11,0,.22,0,.32,0Z"/>
    <path class="cls-2" d="m2436.62,1177.98c-56.6,0-113.2.04-169.8-.07-4.88,0-11.99,2.05-14.08-2.08-2.5-4.94,2.35-10.66,5.47-15.16,7.54-10.89,17.58-17.96,31.53-17.98,100.55-.12,201.09-.87,301.64-.04,14.3.12,25.91,5.84,34.01,17.6,7.13,10.35,3.74,16.75-8.99,17.83-3.64.31-7.32.15-10.98.15-56.27,0-112.53,0-168.8,0v-.26Z"/>
    <path class="cls-2" d="m2440.17,1267.83c56.33,0,112.66,0,168.98,0,1.67,0,3.33-.02,5,0,8.92.1,12.45,2.25,12.84,7.8.51,7.11-6.63,16.81-13.13,17.72-1.65.23-3.33.15-5,.15-109.99-.12-219.98-.23-329.97-.41-3.64,0-7.29-.59-10.93-.99-5.54-.6-9.11-4.77-11.6-10.53-4.42-10.22-2.53-13.95,6.81-13.94,58.99.02,117.99,0,176.98,0,0,.07,0,.13,0,.2Z"/>
    <path class="cls-2" d="m2445.03,1208.64c57.6,0,115.2,0,172.8,0,2.33,0,4.7-.14,6.98.24,9.23,1.52,14.08,10.92,9.23,18.8-5.2,8.45-11.89,14.39-23.16,14.36-109.54-.26-219.08-.2-328.62-.24-2.66,0-5.33-.06-7.99-.2-5.52-.29-10.47-2.34-14.51-5.95-4.77-4.25-9.53-9.15-6.99-16.27,2.47-6.9,7.99-10.37,15.47-10.41,3-.02,5.99-.19,8.99-.2,55.94-.01,111.87,0,167.81,0v-.14Z"/>
  </g>
</svg>