<svg xmlns="http://www.w3.org/2000/svg" width="40" height="40" fill="none" viewBox="0 0 40 40">
  <path stroke="#3cb1f4" stroke-linecap="round" stroke-width="2" d="M31.369 10.451 20.788 5.916a2 2 0 0 0-1.576 0l-10.58 4.535a2 2 0 0 0-1.198 2.086l1.28 10.238a7 7 0 0 0 2.465 4.509l7.54 6.284a2 2 0 0 0 2.561 0l7.541-6.284a7 7 0 0 0 2.465-4.51l1.28-10.237a2 2 0 0 0-1.197-2.086Z"/>
  <path stroke="#3cb1f4" stroke-linecap="round" stroke-width="2" d="m15 20 4.569 4.569a.5.5 0 0 0 .77-.076L26.666 15"/>
</svg>
